%TF.GenerationSoftware,KiCad,Pcbnew,(5.1.10)-1*%
%TF.CreationDate,2022-01-18T17:34:44+07:00*%
%TF.ProjectId,Mother_module_v3,4d6f7468-6572-45f6-9d6f-64756c655f76,rev?*%
%TF.SameCoordinates,Original*%
%TF.FileFunction,Legend,Bot*%
%TF.FilePolarity,Positive*%
%FSLAX46Y46*%
G04 Gerber Fmt 4.6, Leading zero omitted, Abs format (unit mm)*
G04 Created by KiCad (PCBNEW (5.1.10)-1) date 2022-01-18 17:34:44*
%MOMM*%
%LPD*%
G01*
G04 APERTURE LIST*
%ADD10C,0.150000*%
%ADD11C,0.120000*%
%ADD12R,1.700000X1.700000*%
%ADD13C,1.600000*%
%ADD14O,1.800000X2.400000*%
%ADD15R,1.800000X2.400000*%
%ADD16C,1.900000*%
%ADD17R,1.900000X1.900000*%
G04 APERTURE END LIST*
D10*
%TO.C,RV2*%
X75237000Y-116494000D02*
X75237000Y-109494000D01*
X79737000Y-116494000D02*
X79737000Y-109494000D01*
X79737000Y-109494000D02*
X75237000Y-109494000D01*
X79737000Y-116494000D02*
X75237000Y-116494000D01*
D11*
%TO.C,F2*%
X63678000Y-123304500D02*
X58598000Y-123304500D01*
X58598000Y-118097500D02*
X63678000Y-118097500D01*
X74600000Y-122606000D02*
X59360000Y-122606000D01*
X59360000Y-118796000D02*
X74600000Y-118796000D01*
X58598000Y-118097500D02*
X58598000Y-123304500D01*
X75362000Y-123304500D02*
X70282000Y-123304500D01*
X70282000Y-118097500D02*
X75362000Y-118097500D01*
X75362000Y-118097500D02*
X75362000Y-123304500D01*
D10*
%TO.C,RV1*%
X72838000Y-97585000D02*
X72838000Y-93085000D01*
X79838000Y-97585000D02*
X79838000Y-93085000D01*
X72838000Y-97585000D02*
X79838000Y-97585000D01*
X72838000Y-93085000D02*
X79838000Y-93085000D01*
D11*
%TO.C,F1*%
X75362000Y-87617500D02*
X75362000Y-92824500D01*
X70282000Y-87617500D02*
X75362000Y-87617500D01*
X75362000Y-92824500D02*
X70282000Y-92824500D01*
X58598000Y-87617500D02*
X58598000Y-92824500D01*
X59360000Y-88316000D02*
X74600000Y-88316000D01*
X74600000Y-92126000D02*
X59360000Y-92126000D01*
X58598000Y-87617500D02*
X63678000Y-87617500D01*
X63678000Y-92824500D02*
X58598000Y-92824500D01*
%TO.C,RV2*%
D10*
X78175238Y-108961380D02*
X78508571Y-108485190D01*
X78746666Y-108961380D02*
X78746666Y-107961380D01*
X78365714Y-107961380D01*
X78270476Y-108009000D01*
X78222857Y-108056619D01*
X78175238Y-108151857D01*
X78175238Y-108294714D01*
X78222857Y-108389952D01*
X78270476Y-108437571D01*
X78365714Y-108485190D01*
X78746666Y-108485190D01*
X77889523Y-107961380D02*
X77556190Y-108961380D01*
X77222857Y-107961380D01*
X76937142Y-108056619D02*
X76889523Y-108009000D01*
X76794285Y-107961380D01*
X76556190Y-107961380D01*
X76460952Y-108009000D01*
X76413333Y-108056619D01*
X76365714Y-108151857D01*
X76365714Y-108247095D01*
X76413333Y-108389952D01*
X76984761Y-108961380D01*
X76365714Y-108961380D01*
%TO.C,F2*%
X76433571Y-120367666D02*
X76433571Y-120034333D01*
X76957380Y-120034333D02*
X75957380Y-120034333D01*
X75957380Y-120510523D01*
X76052619Y-120843857D02*
X76005000Y-120891476D01*
X75957380Y-120986714D01*
X75957380Y-121224809D01*
X76005000Y-121320047D01*
X76052619Y-121367666D01*
X76147857Y-121415285D01*
X76243095Y-121415285D01*
X76385952Y-121367666D01*
X76957380Y-120796238D01*
X76957380Y-121415285D01*
%TO.C,RV1*%
X77735238Y-92537380D02*
X78068571Y-92061190D01*
X78306666Y-92537380D02*
X78306666Y-91537380D01*
X77925714Y-91537380D01*
X77830476Y-91585000D01*
X77782857Y-91632619D01*
X77735238Y-91727857D01*
X77735238Y-91870714D01*
X77782857Y-91965952D01*
X77830476Y-92013571D01*
X77925714Y-92061190D01*
X78306666Y-92061190D01*
X77449523Y-91537380D02*
X77116190Y-92537380D01*
X76782857Y-91537380D01*
X75925714Y-92537380D02*
X76497142Y-92537380D01*
X76211428Y-92537380D02*
X76211428Y-91537380D01*
X76306666Y-91680238D01*
X76401904Y-91775476D01*
X76497142Y-91823095D01*
%TO.C,F1*%
X76433571Y-89887666D02*
X76433571Y-89554333D01*
X76957380Y-89554333D02*
X75957380Y-89554333D01*
X75957380Y-90030523D01*
X76957380Y-90935285D02*
X76957380Y-90363857D01*
X76957380Y-90649571D02*
X75957380Y-90649571D01*
X76100238Y-90554333D01*
X76195476Y-90459095D01*
X76243095Y-90363857D01*
%TD*%
%LPC*%
D12*
%TO.C,U3*%
X98650000Y-112827000D03*
D13*
X93650000Y-112827000D03*
%TD*%
D14*
%TO.C,U2*%
X118699500Y-103620000D03*
X113699500Y-103620000D03*
X108699500Y-103620000D03*
X81441500Y-103620000D03*
D15*
X76441500Y-103620000D03*
D14*
X123699500Y-103620000D03*
%TD*%
D16*
%TO.C,XP4*%
X137492000Y-114640000D03*
X129972000Y-114640000D03*
D17*
X137492000Y-119720000D03*
D16*
X129972000Y-119720000D03*
%TD*%
%TO.C,XP2*%
X61646000Y-114640000D03*
X69166000Y-114640000D03*
D17*
X61646000Y-109560000D03*
D16*
X69166000Y-109560000D03*
%TD*%
D13*
%TO.C,RV2*%
X76437000Y-110494000D03*
X78537000Y-115494000D03*
%TD*%
%TO.C,F2*%
X69520000Y-120701000D03*
X59360000Y-120701000D03*
X74600000Y-120701000D03*
X64440000Y-120701000D03*
%TD*%
D16*
%TO.C,XP3*%
X137492000Y-89240000D03*
X129972000Y-89240000D03*
X137492000Y-94320000D03*
X129972000Y-94320000D03*
X137492000Y-99400000D03*
X129972000Y-99400000D03*
D17*
X137492000Y-104480000D03*
D16*
X129972000Y-104480000D03*
%TD*%
%TO.C,XP1*%
X61646000Y-84160000D03*
X69166000Y-84160000D03*
D17*
X61646000Y-79080000D03*
D16*
X69166000Y-79080000D03*
%TD*%
D13*
%TO.C,RV1*%
X78838000Y-94285000D03*
X73838000Y-96385000D03*
%TD*%
%TO.C,F1*%
X69520000Y-90221000D03*
X59360000Y-90221000D03*
X74600000Y-90221000D03*
X64440000Y-90221000D03*
%TD*%
M02*
