%TF.GenerationSoftware,KiCad,Pcbnew,(5.1.10)-1*%
%TF.CreationDate,2022-01-17T01:47:07+07:00*%
%TF.ProjectId,Mother_module_v3,4d6f7468-6572-45f6-9d6f-64756c655f76,rev?*%
%TF.SameCoordinates,Original*%
%TF.FileFunction,Copper,L2,Bot*%
%TF.FilePolarity,Positive*%
%FSLAX46Y46*%
G04 Gerber Fmt 4.6, Leading zero omitted, Abs format (unit mm)*
G04 Created by KiCad (PCBNEW (5.1.10)-1) date 2022-01-17 01:47:07*
%MOMM*%
%LPD*%
G01*
G04 APERTURE LIST*
%TA.AperFunction,ComponentPad*%
%ADD10R,1.700000X1.700000*%
%TD*%
%TA.AperFunction,ComponentPad*%
%ADD11C,1.600000*%
%TD*%
%TA.AperFunction,ComponentPad*%
%ADD12O,1.800000X2.400000*%
%TD*%
%TA.AperFunction,ComponentPad*%
%ADD13R,1.800000X2.400000*%
%TD*%
%TA.AperFunction,ComponentPad*%
%ADD14C,1.900000*%
%TD*%
%TA.AperFunction,ComponentPad*%
%ADD15R,1.900000X1.900000*%
%TD*%
%TA.AperFunction,Conductor*%
%ADD16C,3.000000*%
%TD*%
%TA.AperFunction,Conductor*%
%ADD17C,0.250000*%
%TD*%
G04 APERTURE END LIST*
D10*
%TO.P,U3,1*%
%TO.N,N/C*%
X98650000Y-112827000D03*
D11*
%TO.P,U3,2*%
X93650000Y-112827000D03*
%TD*%
D12*
%TO.P,U2,5*%
%TO.N,N/C*%
X118699500Y-103620000D03*
%TO.P,U2,4*%
X113699500Y-103620000D03*
%TO.P,U2,3*%
X108699500Y-103620000D03*
%TO.P,U2,2*%
X81441500Y-103620000D03*
D13*
%TO.P,U2,1*%
X76441500Y-103620000D03*
D12*
%TO.P,U2,6*%
X123699500Y-103620000D03*
%TD*%
D14*
%TO.P,XP4,2*%
%TO.N,Net-(RV2-Pad2)*%
X137492000Y-114640000D03*
X129972000Y-114640000D03*
D15*
%TO.P,XP4,1*%
%TO.N,Net-(U3-Pad1)*%
X137492000Y-119720000D03*
D14*
X129972000Y-119720000D03*
%TD*%
%TO.P,XP2,2*%
%TO.N,Net-(F2-Pad2)*%
X61646000Y-114640000D03*
X69166000Y-114640000D03*
D15*
%TO.P,XP2,1*%
%TO.N,Net-(RV2-Pad2)*%
X61646000Y-109560000D03*
D14*
X69166000Y-109560000D03*
%TD*%
D11*
%TO.P,RV2,2*%
%TO.N,Net-(RV2-Pad2)*%
X76437000Y-110494000D03*
%TO.P,RV2,1*%
%TO.N,Net-(F2-Pad1)*%
X78537000Y-115494000D03*
%TD*%
%TO.P,F2,1*%
%TO.N,Net-(F2-Pad1)*%
X69520000Y-120701000D03*
%TO.P,F2,2*%
%TO.N,Net-(F2-Pad2)*%
X59360000Y-120701000D03*
%TO.P,F2,1*%
%TO.N,Net-(F2-Pad1)*%
X74600000Y-120701000D03*
%TO.P,F2,2*%
%TO.N,Net-(F2-Pad2)*%
X64440000Y-120701000D03*
%TD*%
D14*
%TO.P,XP3,4*%
%TO.N,Net-(U2-Pad3)*%
X137492000Y-89240000D03*
X129972000Y-89240000D03*
%TO.P,XP3,3*%
%TO.N,Net-(U2-Pad4)*%
X137492000Y-94320000D03*
X129972000Y-94320000D03*
%TO.P,XP3,2*%
%TO.N,Net-(U2-Pad6)*%
X137492000Y-99400000D03*
X129972000Y-99400000D03*
D15*
%TO.P,XP3,1*%
%TO.N,Net-(U2-Pad5)*%
X137492000Y-104480000D03*
D14*
X129972000Y-104480000D03*
%TD*%
%TO.P,XP1,2*%
%TO.N,Net-(F1-Pad2)*%
X61646000Y-84160000D03*
X69166000Y-84160000D03*
D15*
%TO.P,XP1,1*%
%TO.N,Net-(RV1-Pad2)*%
X61646000Y-79080000D03*
D14*
X69166000Y-79080000D03*
%TD*%
D11*
%TO.P,RV1,2*%
%TO.N,Net-(RV1-Pad2)*%
X78838000Y-94285000D03*
%TO.P,RV1,1*%
%TO.N,Net-(F1-Pad1)*%
X73838000Y-96385000D03*
%TD*%
%TO.P,F1,1*%
%TO.N,Net-(F1-Pad1)*%
X69520000Y-90221000D03*
%TO.P,F1,2*%
%TO.N,Net-(F1-Pad2)*%
X59360000Y-90221000D03*
%TO.P,F1,1*%
%TO.N,Net-(F1-Pad1)*%
X74600000Y-90221000D03*
%TO.P,F1,2*%
%TO.N,Net-(F1-Pad2)*%
X64440000Y-90221000D03*
%TD*%
D16*
%TO.N,Net-(F1-Pad1)*%
X71552000Y-90221000D02*
X74600000Y-90221000D01*
X69520000Y-90221000D02*
X71552000Y-90221000D01*
X73770000Y-96385000D02*
X71552000Y-98603000D01*
X73838000Y-96385000D02*
X73770000Y-96385000D01*
X69520000Y-96698500D02*
X69520000Y-90221000D01*
X76441500Y-103620000D02*
X69520000Y-96698500D01*
%TO.N,Net-(F1-Pad2)*%
X59360000Y-86446000D02*
X59360000Y-90221000D01*
X61646000Y-84160000D02*
X59360000Y-86446000D01*
X68977000Y-84160000D02*
X69166000Y-84160000D01*
X64440000Y-88697000D02*
X68977000Y-84160000D01*
X64440000Y-90221000D02*
X64440000Y-88697000D01*
X61646000Y-90221000D02*
X64440000Y-90221000D01*
X59360000Y-90221000D02*
X61646000Y-90221000D01*
%TO.N,Net-(U2-Pad3)*%
X114951000Y-89240000D02*
X129972000Y-89240000D01*
X108699500Y-95491500D02*
X114951000Y-89240000D01*
X108699500Y-103620000D02*
X108699500Y-95491500D01*
X129972000Y-89240000D02*
X137492000Y-89240000D01*
%TO.N,Net-(U2-Pad5)*%
X129972000Y-104480000D02*
X137492000Y-104480000D01*
X129972000Y-107239000D02*
X129972000Y-104480000D01*
X127686000Y-109525000D02*
X129972000Y-107239000D01*
X120955000Y-109525000D02*
X127686000Y-109525000D01*
X118699500Y-107269500D02*
X120955000Y-109525000D01*
X118699500Y-103620000D02*
X118699500Y-107269500D01*
%TO.N,Net-(F2-Pad1)*%
X69520000Y-120701000D02*
X74600000Y-120701000D01*
X74600000Y-119431000D02*
X78537000Y-115494000D01*
X74600000Y-120701000D02*
X74600000Y-119431000D01*
X90983000Y-115494000D02*
X93650000Y-112827000D01*
X78537000Y-115494000D02*
X90983000Y-115494000D01*
%TO.N,Net-(F2-Pad2)*%
X59360000Y-120701000D02*
X64440000Y-120701000D01*
X59360000Y-116926000D02*
X61646000Y-114640000D01*
X59360000Y-120701000D02*
X59360000Y-116926000D01*
X64440000Y-119366000D02*
X69166000Y-114640000D01*
X64440000Y-120701000D02*
X64440000Y-119366000D01*
D17*
%TO.N,Net-(RV2-Pad2)*%
X76437000Y-109584000D02*
X76413000Y-109560000D01*
D16*
%TO.N,Net-(U3-Pad1)*%
X137492000Y-119720000D02*
X130064000Y-119720000D01*
X105543000Y-119720000D02*
X98650000Y-112827000D01*
X129972000Y-119720000D02*
X105543000Y-119720000D01*
%TD*%
M02*
