%TF.GenerationSoftware,KiCad,Pcbnew,(5.1.10)-1*%
%TF.CreationDate,2022-01-17T01:47:07+07:00*%
%TF.ProjectId,Mother_module_v3,4d6f7468-6572-45f6-9d6f-64756c655f76,rev?*%
%TF.SameCoordinates,Original*%
%TF.FileFunction,Soldermask,Top*%
%TF.FilePolarity,Negative*%
%FSLAX46Y46*%
G04 Gerber Fmt 4.6, Leading zero omitted, Abs format (unit mm)*
G04 Created by KiCad (PCBNEW (5.1.10)-1) date 2022-01-17 01:47:07*
%MOMM*%
%LPD*%
G01*
G04 APERTURE LIST*
%ADD10R,1.700000X1.700000*%
%ADD11C,1.600000*%
%ADD12O,1.800000X2.400000*%
%ADD13R,1.800000X2.400000*%
%ADD14C,1.900000*%
%ADD15R,1.900000X1.900000*%
G04 APERTURE END LIST*
D10*
%TO.C,U3*%
X98650000Y-112827000D03*
D11*
X93650000Y-112827000D03*
%TD*%
D12*
%TO.C,U2*%
X118699500Y-103620000D03*
X113699500Y-103620000D03*
X108699500Y-103620000D03*
X81441500Y-103620000D03*
D13*
X76441500Y-103620000D03*
D12*
X123699500Y-103620000D03*
%TD*%
D14*
%TO.C,XP4*%
X137492000Y-114640000D03*
X129972000Y-114640000D03*
D15*
X137492000Y-119720000D03*
D14*
X129972000Y-119720000D03*
%TD*%
%TO.C,XP2*%
X61646000Y-114640000D03*
X69166000Y-114640000D03*
D15*
X61646000Y-109560000D03*
D14*
X69166000Y-109560000D03*
%TD*%
D11*
%TO.C,RV2*%
X76437000Y-110494000D03*
X78537000Y-115494000D03*
%TD*%
%TO.C,F2*%
X69520000Y-120701000D03*
X59360000Y-120701000D03*
X74600000Y-120701000D03*
X64440000Y-120701000D03*
%TD*%
D14*
%TO.C,XP3*%
X137492000Y-89240000D03*
X129972000Y-89240000D03*
X137492000Y-94320000D03*
X129972000Y-94320000D03*
X137492000Y-99400000D03*
X129972000Y-99400000D03*
D15*
X137492000Y-104480000D03*
D14*
X129972000Y-104480000D03*
%TD*%
%TO.C,XP1*%
X61646000Y-84160000D03*
X69166000Y-84160000D03*
D15*
X61646000Y-79080000D03*
D14*
X69166000Y-79080000D03*
%TD*%
D11*
%TO.C,RV1*%
X78838000Y-94285000D03*
X73838000Y-96385000D03*
%TD*%
%TO.C,F1*%
X69520000Y-90221000D03*
X59360000Y-90221000D03*
X74600000Y-90221000D03*
X64440000Y-90221000D03*
%TD*%
M02*
