M48
; DRILL file {KiCad (5.1.10)-1} date 01/18/22 17:34:48
; FORMAT={3:3/ absolute / metric / keep zeros}
; #@! TF.CreationDate,2022-01-18T17:34:48+07:00
; #@! TF.GenerationSoftware,Kicad,Pcbnew,(5.1.10)-1
; #@! TF.FileFunction,Plated,1,2,PTH
FMAT,2
METRIC
T1C0.600
T2C1.000
T3C1.050
T4C1.100
T5C1.300
%
G90
G05
T1
X073838Y-096385
X076437Y-110494
X078537Y-115494
X078838Y-094285
T2
X076442Y-103620
X081442Y-103620
X108699Y-103620
X113699Y-103620
X118699Y-103620
X123699Y-103620
T3
X059360Y-090221
X059360Y-120701
X064440Y-090221
X064440Y-120701
X069520Y-090221
X069520Y-120701
X074600Y-090221
X074600Y-120701
T4
X093650Y-112827
X098650Y-112827
T5
X061646Y-079080
X061646Y-084160
X061646Y-109560
X061646Y-114640
X069166Y-079080
X069166Y-084160
X069166Y-109560
X069166Y-114640
X129972Y-089240
X129972Y-094320
X129972Y-099400
X129972Y-104480
X129972Y-114640
X129972Y-119720
X137492Y-089240
X137492Y-094320
X137492Y-099400
X137492Y-104480
X137492Y-114640
X137492Y-119720
T0
M30
