%TF.GenerationSoftware,KiCad,Pcbnew,(5.1.10)-1*%
%TF.CreationDate,2022-01-18T17:34:44+07:00*%
%TF.ProjectId,Mother_module_v3,4d6f7468-6572-45f6-9d6f-64756c655f76,rev?*%
%TF.SameCoordinates,Original*%
%TF.FileFunction,Copper,L1,Top*%
%TF.FilePolarity,Positive*%
%FSLAX46Y46*%
G04 Gerber Fmt 4.6, Leading zero omitted, Abs format (unit mm)*
G04 Created by KiCad (PCBNEW (5.1.10)-1) date 2022-01-18 17:34:44*
%MOMM*%
%LPD*%
G01*
G04 APERTURE LIST*
%TA.AperFunction,NonConductor*%
%ADD10C,0.300000*%
%TD*%
%TA.AperFunction,ComponentPad*%
%ADD11R,1.700000X1.700000*%
%TD*%
%TA.AperFunction,ComponentPad*%
%ADD12C,1.600000*%
%TD*%
%TA.AperFunction,ComponentPad*%
%ADD13O,1.800000X2.400000*%
%TD*%
%TA.AperFunction,ComponentPad*%
%ADD14R,1.800000X2.400000*%
%TD*%
%TA.AperFunction,ComponentPad*%
%ADD15C,1.900000*%
%TD*%
%TA.AperFunction,ComponentPad*%
%ADD16R,1.900000X1.900000*%
%TD*%
%TA.AperFunction,Conductor*%
%ADD17C,3.000000*%
%TD*%
%TA.AperFunction,Conductor*%
%ADD18C,2.000000*%
%TD*%
G04 APERTURE END LIST*
D10*
X137917571Y-78850571D02*
X138274714Y-79850571D01*
X138631857Y-78850571D01*
X139060428Y-78350571D02*
X139989000Y-78350571D01*
X139489000Y-78922000D01*
X139703285Y-78922000D01*
X139846142Y-78993428D01*
X139917571Y-79064857D01*
X139989000Y-79207714D01*
X139989000Y-79564857D01*
X139917571Y-79707714D01*
X139846142Y-79779142D01*
X139703285Y-79850571D01*
X139274714Y-79850571D01*
X139131857Y-79779142D01*
X139060428Y-79707714D01*
D11*
%TO.P,U3,1*%
%TO.N,Net-(U3-Pad1)*%
X98650000Y-112827000D03*
D12*
%TO.P,U3,2*%
%TO.N,Net-(F2-Pad1)*%
X93650000Y-112827000D03*
%TD*%
D13*
%TO.P,U2,5*%
%TO.N,Net-(U2-Pad5)*%
X118699500Y-103620000D03*
%TO.P,U2,4*%
%TO.N,Net-(U2-Pad4)*%
X113699500Y-103620000D03*
%TO.P,U2,3*%
%TO.N,Net-(U2-Pad3)*%
X108699500Y-103620000D03*
%TO.P,U2,2*%
%TO.N,Net-(RV1-Pad2)*%
X81441500Y-103620000D03*
D14*
%TO.P,U2,1*%
%TO.N,Net-(F1-Pad1)*%
X76441500Y-103620000D03*
D13*
%TO.P,U2,6*%
%TO.N,Net-(U2-Pad6)*%
X123699500Y-103620000D03*
%TD*%
D15*
%TO.P,XP4,2*%
%TO.N,Net-(RV2-Pad2)*%
X137492000Y-114640000D03*
X129972000Y-114640000D03*
D16*
%TO.P,XP4,1*%
%TO.N,Net-(U3-Pad1)*%
X137492000Y-119720000D03*
D15*
X129972000Y-119720000D03*
%TD*%
%TO.P,XP2,2*%
%TO.N,Net-(F2-Pad2)*%
X61646000Y-114640000D03*
X69166000Y-114640000D03*
D16*
%TO.P,XP2,1*%
%TO.N,Net-(RV2-Pad2)*%
X61646000Y-109560000D03*
D15*
X69166000Y-109560000D03*
%TD*%
D12*
%TO.P,RV2,2*%
%TO.N,Net-(RV2-Pad2)*%
X76437000Y-110494000D03*
%TO.P,RV2,1*%
%TO.N,Net-(F2-Pad1)*%
X78537000Y-115494000D03*
%TD*%
%TO.P,F2,1*%
%TO.N,Net-(F2-Pad1)*%
X69520000Y-120701000D03*
%TO.P,F2,2*%
%TO.N,Net-(F2-Pad2)*%
X59360000Y-120701000D03*
%TO.P,F2,1*%
%TO.N,Net-(F2-Pad1)*%
X74600000Y-120701000D03*
%TO.P,F2,2*%
%TO.N,Net-(F2-Pad2)*%
X64440000Y-120701000D03*
%TD*%
D15*
%TO.P,XP3,4*%
%TO.N,Net-(U2-Pad3)*%
X137492000Y-89240000D03*
X129972000Y-89240000D03*
%TO.P,XP3,3*%
%TO.N,Net-(U2-Pad4)*%
X137492000Y-94320000D03*
X129972000Y-94320000D03*
%TO.P,XP3,2*%
%TO.N,Net-(U2-Pad6)*%
X137492000Y-99400000D03*
X129972000Y-99400000D03*
D16*
%TO.P,XP3,1*%
%TO.N,Net-(U2-Pad5)*%
X137492000Y-104480000D03*
D15*
X129972000Y-104480000D03*
%TD*%
%TO.P,XP1,2*%
%TO.N,Net-(F1-Pad2)*%
X61646000Y-84160000D03*
X69166000Y-84160000D03*
D16*
%TO.P,XP1,1*%
%TO.N,Net-(RV1-Pad2)*%
X61646000Y-79080000D03*
D15*
X69166000Y-79080000D03*
%TD*%
D12*
%TO.P,RV1,2*%
%TO.N,Net-(RV1-Pad2)*%
X78838000Y-94285000D03*
%TO.P,RV1,1*%
%TO.N,Net-(F1-Pad1)*%
X73838000Y-96385000D03*
%TD*%
%TO.P,F1,1*%
%TO.N,Net-(F1-Pad1)*%
X69520000Y-90221000D03*
%TO.P,F1,2*%
%TO.N,Net-(F1-Pad2)*%
X59360000Y-90221000D03*
%TO.P,F1,1*%
%TO.N,Net-(F1-Pad1)*%
X74600000Y-90221000D03*
%TO.P,F1,2*%
%TO.N,Net-(F1-Pad2)*%
X64440000Y-90221000D03*
%TD*%
D17*
%TO.N,Net-(U2-Pad6)*%
X137492000Y-99400000D02*
X127919500Y-99400000D01*
X127919500Y-99400000D02*
X123699500Y-103620000D01*
%TO.N,Net-(U2-Pad4)*%
X137492000Y-94320000D02*
X129972000Y-94320000D01*
X113699500Y-100143500D02*
X113699500Y-103620000D01*
X119523000Y-94320000D02*
X113699500Y-100143500D01*
X129972000Y-94320000D02*
X119523000Y-94320000D01*
D18*
%TO.N,Net-(RV1-Pad2)*%
X69166000Y-77167000D02*
X69139000Y-77140000D01*
D17*
X75616000Y-77140000D02*
X69139000Y-77140000D01*
X81441500Y-95698500D02*
X81441500Y-82965500D01*
X81441500Y-103620000D02*
X81441500Y-95698500D01*
X81441500Y-82965500D02*
X75616000Y-77140000D01*
X69166000Y-79080000D02*
X69166000Y-77167000D01*
X61646000Y-79045000D02*
X61646000Y-79080000D01*
X63551000Y-77140000D02*
X61646000Y-79045000D01*
X69139000Y-77140000D02*
X63551000Y-77140000D01*
X81441500Y-94301500D02*
X81399000Y-94344000D01*
X78854500Y-94301500D02*
X81441500Y-94301500D01*
X78838000Y-94285000D02*
X78854500Y-94301500D01*
%TO.N,Net-(RV2-Pad2)*%
X137492000Y-114640000D02*
X129972000Y-114640000D01*
X61646000Y-109560000D02*
X69166000Y-109560000D01*
X76437000Y-110494000D02*
X76437000Y-109584000D01*
X69166000Y-109560000D02*
X76413000Y-109560000D01*
X101778000Y-107239000D02*
X109179000Y-114640000D01*
X109179000Y-114640000D02*
X129972000Y-114640000D01*
X90348000Y-107239000D02*
X101778000Y-107239000D01*
X88027000Y-109560000D02*
X90348000Y-107239000D01*
X76413000Y-109560000D02*
X88027000Y-109560000D01*
%TD*%
M02*
