%TF.GenerationSoftware,KiCad,Pcbnew,(5.1.10)-1*%
%TF.CreationDate,2022-01-17T01:47:07+07:00*%
%TF.ProjectId,Mother_module_v3,4d6f7468-6572-45f6-9d6f-64756c655f76,rev?*%
%TF.SameCoordinates,Original*%
%TF.FileFunction,Legend,Top*%
%TF.FilePolarity,Positive*%
%FSLAX46Y46*%
G04 Gerber Fmt 4.6, Leading zero omitted, Abs format (unit mm)*
G04 Created by KiCad (PCBNEW (5.1.10)-1) date 2022-01-17 01:47:07*
%MOMM*%
%LPD*%
G01*
G04 APERTURE LIST*
%ADD10C,0.150000*%
%ADD11C,0.120000*%
%ADD12C,0.050000*%
%ADD13R,1.700000X1.700000*%
%ADD14C,1.600000*%
%ADD15O,1.800000X2.400000*%
%ADD16R,1.800000X2.400000*%
%ADD17C,1.900000*%
%ADD18R,1.900000X1.900000*%
G04 APERTURE END LIST*
D10*
X56750000Y-125000000D02*
X143249640Y-125000000D01*
D11*
%TO.C,U3*%
X120414000Y-115877000D02*
X120414000Y-118877000D01*
X124544000Y-115877000D02*
X124544000Y-118877000D01*
X125000000Y-118877000D02*
X75000000Y-118877000D01*
X125000000Y-120477000D02*
X75000000Y-120477000D01*
X80800000Y-108158000D02*
X125000000Y-108158000D01*
X75000000Y-136977000D02*
X75000000Y-116877000D01*
X109500000Y-132415000D02*
X81000000Y-132415000D01*
X125000000Y-108158000D02*
X125000000Y-124777000D01*
X100000000Y-120477000D02*
X100000000Y-119207000D01*
X124544000Y-118877000D02*
X120414000Y-115877000D01*
X120414000Y-115877000D02*
X124544000Y-115877000D01*
X124544000Y-115877000D02*
X120414000Y-118877000D01*
X109500000Y-132415000D02*
X109500000Y-124777000D01*
X125000000Y-124777000D02*
X109500000Y-124777000D01*
X81000000Y-132415000D02*
X81000000Y-136977000D01*
X75000000Y-136977000D02*
X81000000Y-136977000D01*
X75000000Y-116877000D02*
X80800000Y-116877000D01*
X80800000Y-116877000D02*
X80800000Y-108158000D01*
%TO.C,U2*%
X88664000Y-100600000D02*
X92794000Y-100600000D01*
X92794000Y-100600000D02*
X92794000Y-97600000D01*
X88664000Y-100600000D02*
X88664000Y-97600000D01*
X92794000Y-100600000D02*
X88664000Y-97600000D01*
X88664000Y-97600000D02*
X92794000Y-97600000D01*
X92794000Y-97600000D02*
X88664000Y-100600000D01*
X75456000Y-100600000D02*
X79586000Y-100600000D01*
X79586000Y-100600000D02*
X79586000Y-97600000D01*
X125000000Y-108000000D02*
X125000000Y-75500000D01*
X125000000Y-75500000D02*
X75000000Y-75500000D01*
X75000000Y-75500000D02*
X75000000Y-108000000D01*
X75000000Y-108000000D02*
X125000000Y-108000000D01*
X125000000Y-96000000D02*
X75000000Y-96000000D01*
X125000000Y-97600000D02*
X75000000Y-97600000D01*
X100000000Y-96254000D02*
X100000000Y-95746000D01*
X75456000Y-100600000D02*
X75456000Y-97600000D01*
X79586000Y-100600000D02*
X75456000Y-97600000D01*
X75456000Y-97600000D02*
X79586000Y-97600000D01*
X79586000Y-97600000D02*
X75456000Y-100600000D01*
%TO.C,XP4*%
X142079000Y-122197000D02*
X127945000Y-122197000D01*
X142079000Y-109243000D02*
X142079000Y-122197000D01*
X127945000Y-109243000D02*
X142079000Y-109243000D01*
X127945000Y-122197000D02*
X127945000Y-109243000D01*
D12*
X127945000Y-111910000D02*
X142042000Y-111910000D01*
D11*
%TO.C,XP2*%
X57059000Y-107083000D02*
X71193000Y-107083000D01*
X57059000Y-120037000D02*
X57059000Y-107083000D01*
X71193000Y-120037000D02*
X57059000Y-120037000D01*
X71193000Y-107083000D02*
X71193000Y-120037000D01*
D12*
X71193000Y-117370000D02*
X57096000Y-117370000D01*
D11*
%TO.C,XP3*%
X142079000Y-106957000D02*
X127945000Y-106957000D01*
X142079000Y-83843000D02*
X142079000Y-106957000D01*
X127945000Y-83843000D02*
X142079000Y-83843000D01*
X127945000Y-106957000D02*
X127945000Y-83843000D01*
D12*
X127945000Y-86510000D02*
X142042000Y-86510000D01*
%TO.C,XP1*%
X71193000Y-86890000D02*
X57096000Y-86890000D01*
D11*
X71193000Y-76603000D02*
X71193000Y-89557000D01*
X71193000Y-89557000D02*
X57059000Y-89557000D01*
X57059000Y-89557000D02*
X57059000Y-76603000D01*
X57059000Y-76603000D02*
X71193000Y-76603000D01*
%TO.C,U3*%
D10*
X122987095Y-122058380D02*
X122987095Y-122867904D01*
X123034714Y-122963142D01*
X123082333Y-123010761D01*
X123177571Y-123058380D01*
X123368047Y-123058380D01*
X123463285Y-123010761D01*
X123510904Y-122963142D01*
X123558523Y-122867904D01*
X123558523Y-122058380D01*
X123939476Y-122058380D02*
X124558523Y-122058380D01*
X124225190Y-122439333D01*
X124368047Y-122439333D01*
X124463285Y-122486952D01*
X124510904Y-122534571D01*
X124558523Y-122629809D01*
X124558523Y-122867904D01*
X124510904Y-122963142D01*
X124463285Y-123010761D01*
X124368047Y-123058380D01*
X124082333Y-123058380D01*
X123987095Y-123010761D01*
X123939476Y-122963142D01*
%TO.C,U2*%
X99238095Y-76656380D02*
X99238095Y-77465904D01*
X99285714Y-77561142D01*
X99333333Y-77608761D01*
X99428571Y-77656380D01*
X99619047Y-77656380D01*
X99714285Y-77608761D01*
X99761904Y-77561142D01*
X99809523Y-77465904D01*
X99809523Y-76656380D01*
X100238095Y-76751619D02*
X100285714Y-76704000D01*
X100380952Y-76656380D01*
X100619047Y-76656380D01*
X100714285Y-76704000D01*
X100761904Y-76751619D01*
X100809523Y-76846857D01*
X100809523Y-76942095D01*
X100761904Y-77084952D01*
X100190476Y-77656380D01*
X100809523Y-77656380D01*
%TO.C,U1*%
X99238095Y-100452380D02*
X99238095Y-101261904D01*
X99285714Y-101357142D01*
X99333333Y-101404761D01*
X99428571Y-101452380D01*
X99619047Y-101452380D01*
X99714285Y-101404761D01*
X99761904Y-101357142D01*
X99809523Y-101261904D01*
X99809523Y-100452380D01*
X100809523Y-101452380D02*
X100238095Y-101452380D01*
X100523809Y-101452380D02*
X100523809Y-100452380D01*
X100428571Y-100595238D01*
X100333333Y-100690476D01*
X100238095Y-100738095D01*
%TO.C,XP4*%
X132295476Y-122982380D02*
X132962142Y-123982380D01*
X132962142Y-122982380D02*
X132295476Y-123982380D01*
X133343095Y-123982380D02*
X133343095Y-122982380D01*
X133724047Y-122982380D01*
X133819285Y-123030000D01*
X133866904Y-123077619D01*
X133914523Y-123172857D01*
X133914523Y-123315714D01*
X133866904Y-123410952D01*
X133819285Y-123458571D01*
X133724047Y-123506190D01*
X133343095Y-123506190D01*
X134771666Y-123315714D02*
X134771666Y-123982380D01*
X134533571Y-122934761D02*
X134295476Y-123649047D01*
X134914523Y-123649047D01*
%TO.C,XP2*%
X64223476Y-105802380D02*
X64890142Y-106802380D01*
X64890142Y-105802380D02*
X64223476Y-106802380D01*
X65271095Y-106802380D02*
X65271095Y-105802380D01*
X65652047Y-105802380D01*
X65747285Y-105850000D01*
X65794904Y-105897619D01*
X65842523Y-105992857D01*
X65842523Y-106135714D01*
X65794904Y-106230952D01*
X65747285Y-106278571D01*
X65652047Y-106326190D01*
X65271095Y-106326190D01*
X66223476Y-105897619D02*
X66271095Y-105850000D01*
X66366333Y-105802380D01*
X66604428Y-105802380D01*
X66699666Y-105850000D01*
X66747285Y-105897619D01*
X66794904Y-105992857D01*
X66794904Y-106088095D01*
X66747285Y-106230952D01*
X66175857Y-106802380D01*
X66794904Y-106802380D01*
%TO.C,XP3*%
X132853476Y-82342380D02*
X133520142Y-83342380D01*
X133520142Y-82342380D02*
X132853476Y-83342380D01*
X133901095Y-83342380D02*
X133901095Y-82342380D01*
X134282047Y-82342380D01*
X134377285Y-82390000D01*
X134424904Y-82437619D01*
X134472523Y-82532857D01*
X134472523Y-82675714D01*
X134424904Y-82770952D01*
X134377285Y-82818571D01*
X134282047Y-82866190D01*
X133901095Y-82866190D01*
X134805857Y-82342380D02*
X135424904Y-82342380D01*
X135091571Y-82723333D01*
X135234428Y-82723333D01*
X135329666Y-82770952D01*
X135377285Y-82818571D01*
X135424904Y-82913809D01*
X135424904Y-83151904D01*
X135377285Y-83247142D01*
X135329666Y-83294761D01*
X135234428Y-83342380D01*
X134948714Y-83342380D01*
X134853476Y-83294761D01*
X134805857Y-83247142D01*
%TO.C,XP1*%
X64223476Y-75230380D02*
X64890142Y-76230380D01*
X64890142Y-75230380D02*
X64223476Y-76230380D01*
X65271095Y-76230380D02*
X65271095Y-75230380D01*
X65652047Y-75230380D01*
X65747285Y-75278000D01*
X65794904Y-75325619D01*
X65842523Y-75420857D01*
X65842523Y-75563714D01*
X65794904Y-75658952D01*
X65747285Y-75706571D01*
X65652047Y-75754190D01*
X65271095Y-75754190D01*
X66794904Y-76230380D02*
X66223476Y-76230380D01*
X66509190Y-76230380D02*
X66509190Y-75230380D01*
X66413952Y-75373238D01*
X66318714Y-75468476D01*
X66223476Y-75516095D01*
%TD*%
%LPC*%
D13*
%TO.C,U3*%
X98650000Y-112827000D03*
D14*
X93650000Y-112827000D03*
%TD*%
D15*
%TO.C,U2*%
X118699500Y-103620000D03*
X113699500Y-103620000D03*
X108699500Y-103620000D03*
X81441500Y-103620000D03*
D16*
X76441500Y-103620000D03*
D15*
X123699500Y-103620000D03*
%TD*%
D17*
%TO.C,XP4*%
X137492000Y-114640000D03*
X129972000Y-114640000D03*
D18*
X137492000Y-119720000D03*
D17*
X129972000Y-119720000D03*
%TD*%
%TO.C,XP2*%
X61646000Y-114640000D03*
X69166000Y-114640000D03*
D18*
X61646000Y-109560000D03*
D17*
X69166000Y-109560000D03*
%TD*%
D14*
%TO.C,RV2*%
X76437000Y-110494000D03*
X78537000Y-115494000D03*
%TD*%
%TO.C,F2*%
X69520000Y-120701000D03*
X59360000Y-120701000D03*
X74600000Y-120701000D03*
X64440000Y-120701000D03*
%TD*%
D17*
%TO.C,XP3*%
X137492000Y-89240000D03*
X129972000Y-89240000D03*
X137492000Y-94320000D03*
X129972000Y-94320000D03*
X137492000Y-99400000D03*
X129972000Y-99400000D03*
D18*
X137492000Y-104480000D03*
D17*
X129972000Y-104480000D03*
%TD*%
%TO.C,XP1*%
X61646000Y-84160000D03*
X69166000Y-84160000D03*
D18*
X61646000Y-79080000D03*
D17*
X69166000Y-79080000D03*
%TD*%
D14*
%TO.C,RV1*%
X78838000Y-94285000D03*
X73838000Y-96385000D03*
%TD*%
%TO.C,F1*%
X69520000Y-90221000D03*
X59360000Y-90221000D03*
X74600000Y-90221000D03*
X64440000Y-90221000D03*
%TD*%
M02*
